<svg aria-hidden="true" style="position: absolute; width: 0; height: 0; overflow: hidden;" version="1.1" xmlns="http://www.w3.org/2000/svg" xmlns:xlink="http://www.w3.org/1999/xlink">
<defs>
<symbol id="icon-facebook" viewBox="0 0 31 32">
<path fill="#4173cd" style="fill: var(--color1, #4173cd)" d="M30.609 16c0 8.113-6.577 14.689-14.689 14.689s-14.689-6.577-14.689-14.689c0-8.113 6.577-14.689 14.689-14.689s14.689 6.577 14.689 14.689z"></path>
<path fill="#fff" style="fill: var(--color2, #fff)" d="M16.013 9.798c-3.477 0-6.295 2.609-6.295 5.829 0 1.834 0.915 3.47 2.346 4.539v2.223l2.144-1.177c0.572 0.158 1.178 0.244 1.806 0.244 3.477 0 6.295-2.609 6.295-5.829s-2.819-5.83-6.295-5.83zM16.638 17.647l-1.603-1.71-3.128 1.71 3.441-3.653 1.642 1.71 3.089-1.71-3.441 3.653z"></path>
</symbol>
<symbol id="icon-telegram" viewBox="0 0 31 32">
<path fill="#309fdc" style="fill: var(--color3, #309fdc)" d="M29.378 16c0 8.113-6.577 14.689-14.689 14.689s-14.689-6.577-14.689-14.689c0-8.113 6.577-14.689 14.689-14.689s14.689 6.577 14.689 14.689z"></path>
<path fill="#fff" style="fill: var(--color2, #fff)" d="M12.775 17.762l-0.208 2.929c0.298 0 0.427-0.128 0.582-0.282l1.397-1.335 2.895 2.12c0.531 0.296 0.905 0.14 1.048-0.488l1.901-8.904c0.169-0.785-0.284-1.092-0.801-0.899l-11.169 4.276c-0.762 0.296-0.751 0.721-0.13 0.913l2.855 0.888 6.633-4.15c0.312-0.207 0.596-0.092 0.363 0.114l-5.365 4.818z"></path>
</symbol>
<symbol id="icon-viber" viewBox="0 0 32 32">
<path fill="#7b519d" style="fill: var(--color4, #7b519d)" d="M30.689 16c0 8.113-6.577 14.689-14.689 14.689s-14.689-6.577-14.689-14.689c0-8.113 6.577-14.689 14.689-14.689s14.689 6.577 14.689 14.689z"></path>
<path fill="#fff" style="fill: var(--color2, #fff)" d="M19.915 15.082c0.015-1.775-1.497-3.403-3.37-3.628-0.037-0.004-0.078-0.011-0.121-0.018-0.093-0.015-0.189-0.031-0.285-0.031-0.384 0-0.487 0.27-0.514 0.431-0.026 0.156-0.001 0.288 0.074 0.391 0.127 0.173 0.351 0.204 0.531 0.228 0.053 0.007 0.102 0.014 0.144 0.023 1.683 0.376 2.25 0.967 2.527 2.636 0.007 0.041 0.010 0.091 0.013 0.144 0.012 0.2 0.037 0.615 0.483 0.615v0c0.037 0 0.077-0.003 0.119-0.009 0.416-0.063 0.402-0.443 0.396-0.625-0.002-0.051-0.003-0.1 0.001-0.132 0.001-0.008 0.002-0.016 0.002-0.024z"></path>
<path fill="#fff" style="fill: var(--color2, #fff)" d="M16.030 10.802c0.050 0.004 0.097 0.007 0.136 0.013 2.764 0.425 4.035 1.735 4.387 4.52 0.006 0.047 0.007 0.105 0.008 0.166 0.003 0.218 0.011 0.67 0.497 0.68l0.015 0c0.152 0 0.274-0.046 0.361-0.137 0.151-0.158 0.141-0.393 0.132-0.583-0.002-0.046-0.004-0.090-0.004-0.128 0.035-2.849-2.431-5.432-5.277-5.529-0.012-0-0.023 0-0.034 0.002-0.006 0.001-0.016 0.002-0.034 0.002-0.028 0-0.063-0.002-0.1-0.005-0.045-0.003-0.095-0.007-0.147-0.007-0.453 0-0.54 0.322-0.551 0.514-0.025 0.444 0.404 0.475 0.61 0.49z"></path>
<path fill="#fff" style="fill: var(--color2, #fff)" d="M20.42 18.936c-0.059-0.045-0.119-0.091-0.176-0.137-0.302-0.243-0.623-0.467-0.933-0.683-0.064-0.045-0.129-0.090-0.193-0.135-0.398-0.279-0.755-0.415-1.093-0.415-0.455 0-0.852 0.251-1.179 0.747-0.145 0.22-0.321 0.327-0.538 0.327-0.128 0-0.274-0.037-0.433-0.109-1.284-0.582-2.201-1.475-2.725-2.653-0.253-0.569-0.171-0.942 0.275-1.245 0.253-0.172 0.725-0.492 0.691-1.105-0.038-0.696-1.573-2.79-2.22-3.028-0.274-0.101-0.562-0.102-0.857-0.002-0.744 0.25-1.277 0.689-1.544 1.27-0.257 0.561-0.246 1.22 0.034 1.905 0.807 1.981 1.942 3.708 3.372 5.134 1.4 1.395 3.122 2.538 5.116 3.397 0.18 0.077 0.368 0.119 0.506 0.15 0.047 0.011 0.087 0.019 0.117 0.028 0.016 0.004 0.033 0.007 0.050 0.007h0.016c0 0 0 0 0 0 0.938 0 2.064-0.857 2.41-1.834 0.303-0.855-0.25-1.278-0.695-1.618z"></path>
<path fill="#fff" style="fill: var(--color2, #fff)" d="M16.445 13.064c-0.161 0.004-0.495 0.012-0.612 0.353-0.055 0.159-0.048 0.297 0.020 0.411 0.099 0.166 0.29 0.217 0.464 0.245 0.629 0.101 0.952 0.449 1.017 1.095 0.030 0.301 0.233 0.512 0.493 0.512v0c0.019 0 0.039-0.001 0.058-0.004 0.313-0.037 0.465-0.267 0.451-0.684 0.005-0.435-0.222-0.928-0.609-1.321-0.388-0.394-0.856-0.616-1.282-0.606z"></path>
</symbol>
</defs>
</svg>
