<svg width="28" height="28" viewBox="0 0 28 28" fill="none" xmlns="http://www.w3.org/2000/svg">
<g clip-path="url(#clip0)">
<path d="M23.9516 11.7502C23.9853 7.80255 20.623 4.18359 16.4567 3.68316C16.3738 3.67333 16.2836 3.65837 16.188 3.64255C15.9817 3.60837 15.7684 3.57324 15.5532 3.57324C14.6993 3.57324 14.471 4.17307 14.4109 4.53081C14.3525 4.87863 14.4083 5.17072 14.5763 5.39933C14.8591 5.78385 15.3567 5.85211 15.7563 5.90681C15.8735 5.92298 15.984 5.93802 16.0765 5.95881C19.8198 6.79524 21.0803 8.11028 21.6963 11.8218C21.7113 11.9125 21.7181 12.0242 21.7253 12.1427C21.7522 12.5864 21.8082 13.5094 22.8005 13.5094H22.8006C22.8832 13.5094 22.972 13.5023 23.0644 13.4882C23.9885 13.3478 23.9596 12.504 23.9456 12.0986C23.9417 11.9845 23.938 11.8765 23.9476 11.8046C23.9503 11.7865 23.9516 11.7684 23.9516 11.7502Z" fill="white"/>
<path d="M15.311 2.23374C15.4218 2.24174 15.5268 2.24939 15.6142 2.26278C21.7611 3.20809 24.5879 6.12044 25.3713 12.3154C25.3846 12.4207 25.3867 12.5491 25.3889 12.6851C25.3967 13.1691 25.4128 14.176 26.4941 14.1969L26.5277 14.1972C26.8668 14.1972 27.1365 14.095 27.3295 13.893C27.6661 13.541 27.6426 13.0179 27.6237 12.5976C27.6191 12.4944 27.6146 12.3973 27.6158 12.3123C27.6939 5.97644 22.2096 0.23113 15.8794 0.0174783C15.8531 0.0166087 15.8281 0.018 15.8028 0.0215652C15.7904 0.0233913 15.7673 0.0256522 15.7278 0.0256522C15.6647 0.0256522 15.5871 0.0201739 15.5047 0.0146087C15.4051 0.00782609 15.2923 0 15.1778 0C14.1697 0 13.9781 0.716522 13.9536 1.14365C13.8971 2.13078 14.852 2.20026 15.311 2.23374Z" fill="white"/>
<path d="M25.0747 20.323C24.944 20.2232 24.8089 20.1199 24.6823 20.018C24.0112 19.4779 23.2972 18.9801 22.6067 18.4986C22.4634 18.3988 22.3201 18.2988 22.1773 18.1987C21.2928 17.5774 20.4976 17.2755 19.7462 17.2755C18.7343 17.2755 17.8521 17.8346 17.1239 18.9371C16.8013 19.4259 16.4099 19.6635 15.9276 19.6635C15.6423 19.6635 15.3182 19.5822 14.9644 19.4215C12.1094 18.1268 10.0707 16.1418 8.90486 13.5215C8.34129 12.2551 8.52399 11.4273 9.51581 10.7535C10.079 10.3713 11.1274 9.65963 11.0531 8.29685C10.969 6.74928 7.55442 2.09285 6.11573 1.56398C5.5066 1.33998 4.8666 1.33789 4.21008 1.55876C2.55616 2.11476 1.36929 3.09119 0.777468 4.38233C0.205555 5.62989 0.231381 7.09476 0.852163 8.61859C2.64677 13.0243 5.1699 16.8655 8.35173 20.0354C11.4662 23.1383 15.2941 25.6801 19.729 27.5897C20.1288 27.7617 20.5481 27.8555 20.8542 27.924C20.9586 27.9475 21.0487 27.9675 21.1143 27.9855C21.1504 27.9953 21.1876 28.0006 21.2249 28.0009L21.26 28.0011C21.2601 28.0011 21.26 28.0011 21.2602 28.0011C23.3461 28.0011 25.8507 26.095 26.6199 23.922C27.2938 22.0192 26.0634 21.0787 25.0747 20.323Z" fill="white"/>
<path d="M16.2336 7.26639C15.8765 7.27543 15.1333 7.29386 14.8725 8.05082C14.7505 8.40456 14.7651 8.71169 14.916 8.96369C15.1374 9.33343 15.5616 9.44673 15.9474 9.50891C17.3466 9.73343 18.0652 10.5072 18.209 11.9437C18.2757 12.6135 18.7268 13.0813 19.3059 13.0813H19.306C19.3488 13.0813 19.3925 13.0787 19.4361 13.0734C20.1326 12.9906 20.4703 12.4788 20.4397 11.5526C20.4509 10.5859 19.945 9.48838 19.0845 8.61421C18.2211 7.73734 17.1803 7.24352 16.2336 7.26639Z" fill="white"/>
</g>
<defs>
<clipPath id="clip0">
<rect width="28" height="28" fill="white"/>
</clipPath>
</defs>
</svg>
