<svg aria-hidden="true" style="position: absolute; width: 0; height: 0; overflow: hidden;" version="1.1" xmlns="http://www.w3.org/2000/svg" xmlns:xlink="http://www.w3.org/1999/xlink">
<defs>
<symbol id="icon-logo" viewBox="0 0 182 32">
<path fill="#19234c" style="fill: var(--color1, #19234c)" d="M91.234 0.754h-2.212l-1.404 2.894-1.374-2.894h-2.45l2.63 4.834c-0.12 0.149-0.239 0.238-0.359 0.298s-0.269 0.090-0.448 0.090-0.418-0.030-0.717-0.119l-0.538 1.67c0.449 0.179 0.897 0.269 1.345 0.269l-0.002-0c0.012 0 0.024 0 0.036 0 0.569 0 1.096-0.179 1.52-0.478 0.478-0.328 0.866-0.775 1.195-1.402l2.779-5.162zM98.495 0.754h-2.331v2.418h-2.151v-2.418h-2.331v6.862h2.331v-2.536h2.151v2.538h2.331v-6.864zM99.69 0.754h0.030v6.866h2.182l2.331-3.552v3.552h2.271v-6.864h-2.182l-2.361 3.581v-3.582h-2.271zM113.018 4.007c0.388 0.15 0.687 0.328 0.896 0.626 0.21 0.269 0.299 0.597 0.299 0.985 0 0.627-0.239 1.104-0.718 1.462s-1.165 0.537-2.062 0.537h-3.676v-6.863h3.497c0.837 0 1.524 0.15 1.972 0.478 0.478 0.328 0.687 0.746 0.687 1.313 0 0.007 0 0.016 0 0.025 0 0.628-0.361 1.171-0.887 1.434l-0.009 0.004zM110.030 3.381h0.986c0.389 0 0.568-0.179 0.568-0.507 0-0.358-0.179-0.507-0.568-0.507h-0.986v1.014zM111.315 6.006c0.388 0 0.567-0.179 0.567-0.537s-0.179-0.538-0.567-0.538h-1.286v1.074h1.286zM120.758 5.887v-0.030h-3.436v-0.895h2.898v-1.671h-2.898v-0.806h3.317v-1.731h-5.588v6.863h5.707v-1.731zM125.002 0.754c0.627 0 1.195 0.12 1.673 0.328 0.478 0.21 0.837 0.508 1.076 0.896 0.269 0.388 0.389 0.835 0.389 1.372s-0.12 0.985-0.389 1.373c-0.272 0.388-0.635 0.693-1.060 0.889l-0.016 0.007c-0.478 0.208-1.016 0.328-1.673 0.328h-0.986v1.701h-2.331v-6.864h3.318v-0.029zM124.852 4.157c0.329 0 0.538-0.060 0.717-0.21 0.148-0.143 0.24-0.343 0.24-0.564 0-0.011-0-0.023-0.001-0.034l0 0.002c0-0.010 0.001-0.021 0.001-0.032 0-0.222-0.092-0.422-0.24-0.564l-0-0c-0.149-0.149-0.388-0.208-0.717-0.208h-0.837v1.611h0.837zM132.382 7.767h-0.001c0.010 0 0.019 0 0.029 0 0.635 0 1.242-0.12 1.765-0.328 0.508-0.239 0.957-0.567 1.285-1.015l-1.464-1.313c-0.418 0.538-0.926 0.806-1.494 0.806-0.478 0-0.866-0.179-1.165-0.478-0.299-0.328-0.449-0.716-0.449-1.253s0.15-0.955 0.449-1.254c0.298-0.328 0.687-0.478 1.165-0.478 0.568 0 1.076 0.269 1.494 0.806l1.464-1.283c-0.328-0.447-0.746-0.776-1.285-1.015s-1.135-0.358-1.793-0.358c-0.747 0-1.405 0.15-1.972 0.448l-0.019 0.009c-0.558 0.286-1.025 0.724-1.356 1.274-0.329 0.538-0.508 1.164-0.508 1.85v-0.002c-0 0.011-0 0.022-0 0.033 0 0.672 0.189 1.3 0.508 1.818l0.008 0.015c0.314 0.542 0.784 0.982 1.367 1.268l-0.025-0.011c0.586 0.294 1.248 0.46 1.949 0.46 0.017 0 0.034-0 0.048-0zM140.929 6.424h-2.6l-0.448 1.194h-2.361l3.018-6.863h2.271l3.018 6.864h-2.391l-0.508-1.194zM140.271 4.754l-0.657-1.731-0.658 1.731h1.314zM151.209 0.754v0.030h-5.798l-0.090 2.686c0 0.537-0.030 0.954-0.090 1.282s-0.15 0.568-0.269 0.776c-0.15 0.209-0.329 0.298-0.568 0.298-0.090 0-0.179 0-0.269-0.030l-0.119 1.85c0.358 0.090 0.687 0.12 0.986 0.12 0.598 0 1.076-0.179 1.405-0.538s0.568-0.835 0.687-1.462c0.12-0.627 0.21-1.433 0.239-2.418l0.030-0.806h1.584v5.074h2.271v-6.864zM156.139 2.874c0.867 0 1.524 0.178 1.973 0.566 0.478 0.388 0.687 0.955 0.687 1.701 0 0.806-0.269 1.432-0.807 1.85s-1.254 0.656-2.181 0.656h-3.407v-6.862h2.271v2.118h1.464v-0.030zM155.691 6.006c0.239 0 0.418-0.059 0.568-0.209s0.239-0.358 0.239-0.626c0-0.448-0.27-0.686-0.807-0.686h-0.986v1.522h0.986zM166.39 0.754h-2.331v2.418h-2.151v-2.418h-2.331v6.862h2.331v-2.536h2.151v2.538h2.331v-6.864zM172.456 6.424h-2.6l-0.448 1.194h-2.361l3.018-6.863h2.271l3.018 6.864h-2.39l-0.508-1.194zM171.828 4.754l-0.658-1.731-0.657 1.731h1.314zM181.6 0.754v6.864h-2.301v-1.642h-0.598l-1.046 1.641h-2.42l1.345-1.969c-0.427-0.195-0.774-0.503-1.011-0.886l-0.006-0.010c-0.238-0.387-0.358-0.835-0.358-1.372s0.12-1.014 0.389-1.402c0.275-0.404 0.649-0.721 1.089-0.919l0.016-0.007c0.478-0.208 1.046-0.328 1.703-0.328h3.198v0.030zM178.402 2.545c-0.598 0-0.897 0.269-0.897 0.836s0.299 0.865 0.897 0.865h0.897v-1.701h-0.897zM95.088 17.644h-2.599l-0.449 1.194h-2.39l3.018-6.863h2.271l3.018 6.863h-2.39l-0.478-1.194zM94.461 15.973l-0.658-1.73-0.658 1.73h1.315zM103.396 15.317l2.032-3.342h-2.421l-1.464 2.566h-0.718v-2.566h-2.33v6.863h2.33v-2.477h0.658l1.315 2.477h2.63l-2.032-3.521zM110.568 17.644h-2.6l-0.448 1.194h-2.361l3.018-6.863h2.271l3.018 6.863h-2.39l-0.508-1.194zM109.91 15.973l-0.658-1.73-0.658 1.73h1.315zM121.863 17.047v3.133h-2.122v-1.342h-3.914v1.342h-2.122v-3.132h0.209c0.389 0 0.687-0.238 0.837-0.746s0.269-1.253 0.329-2.238l0.090-2.088h5.827v5.072h0.866zM117.082 14.242c-0.030 0.656-0.090 1.224-0.15 1.671-0.090 0.448-0.209 0.835-0.358 1.104h2.122v-3.282h-1.584l-0.030 0.507zM128.348 17.077v1.731h-5.707v-6.864h5.588v1.761h-3.317v0.806h2.898v1.67h-2.898v0.896h3.436zM135.43 18.838l-0.030-3.133-1.494 2.506h-1.016l-1.494-2.418v3.014h-2.122v-6.864h1.913l2.241 3.671 2.182-3.67h1.913l0.030 6.863h-2.122v0.030zM138.747 11.974h2.271v3.581l2.361-3.581h2.182v6.863h-2.271v-3.551l-2.361 3.551h-2.182v-6.863zM152.822 11.974v6.863h-2.271v-1.642h-0.627l-1.046 1.642h-2.42l1.345-1.97c-0.427-0.195-0.774-0.502-1.010-0.885l-0.006-0.010c-0.239-0.388-0.359-0.835-0.359-1.373 0-0.536 0.12-1.014 0.389-1.402 0.275-0.404 0.649-0.72 1.089-0.918l0.016-0.007c0.478-0.209 1.046-0.328 1.703-0.328h3.198v0.030zM149.625 13.765c-0.598 0-0.896 0.269-0.896 0.835 0 0.568 0.298 0.866 0.896 0.866h0.897v-1.701h-0.897zM101.991 24.985h-2.002v5.072h-2.271v-5.072h-2.002v-1.79h6.305v1.79h-0.030zM106.055 23.194c0.628 0 1.195 0.119 1.674 0.328s0.837 0.507 1.076 0.896c0.269 0.387 0.388 0.835 0.388 1.372s-0.119 0.984-0.388 1.373c-0.272 0.387-0.635 0.692-1.060 0.888l-0.016 0.007c-0.478 0.208-1.016 0.328-1.674 0.328h-0.986v1.701h-2.331v-6.863h3.317v-0.030zM105.906 26.566c0.329 0 0.538-0.060 0.718-0.209 0.148-0.143 0.24-0.343 0.24-0.564 0-0.011-0-0.023-0.001-0.034l0 0.002c0-0.010 0.001-0.021 0.001-0.032 0-0.222-0.092-0.422-0.24-0.564l-0-0c-0.15-0.15-0.389-0.209-0.718-0.209h-0.836v1.611h0.836zM115.618 28.297v1.73h-5.707v-6.862h5.588v1.73h-3.317v0.806h2.898v1.671h-2.898v0.895h3.436v0.030zM116.544 23.194h2.271v3.581l2.361-3.581h2.182v6.863h-2.271v-3.581l-2.361 3.551h-2.182v-6.834zM119.951 22.806c-0.747 0-1.315-0.15-1.644-0.418s-0.508-0.717-0.508-1.254h1.554c0 0.209 0.030 0.388 0.119 0.478s0.239 0.149 0.478 0.149c0.209 0 0.388-0.059 0.478-0.149s0.15-0.269 0.15-0.478h1.554c0 0.567-0.179 0.985-0.508 1.254-0.359 0.268-0.897 0.418-1.674 0.418zM132.293 28.267v3.133h-2.122v-1.342h-3.915v1.342h-2.122v-3.133h0.21c0.388 0 0.687-0.239 0.837-0.746s0.269-1.253 0.329-2.238l0.090-2.089h5.827v5.072h0.866zM127.511 25.462c-0.030 0.656-0.090 1.223-0.149 1.67-0.090 0.448-0.21 0.836-0.359 1.104h2.122v-3.282h-1.583l-0.030 0.507zM133.070 23.194h2.271v3.581l2.361-3.581h2.182v6.863h-2.271v-3.581l-2.361 3.551h-2.182v-6.834zM147.892 23.194v6.863h-2.331v-2.536h-2.122v2.536h-2.331v-6.864h2.331v2.418h2.151v-2.417h2.302zM154.346 24.985h-2.958v5.072h-2.271v-6.862h5.23v1.79zM158.59 28.864h-2.599l-0.449 1.194h-2.361l3.018-6.864h2.271l3.018 6.864h-2.391l-0.508-1.194zM157.933 27.193l-0.658-1.73-0.658 1.73h1.315zM73.005 0.606l16.943 29.302h-2.659l-16.944-29.302h2.66z"></path>
<path fill="#000" style="fill: var(--color2, #000)" d="M37.002 0.576h17.62l-4.24 7.33h-9.708v18.296c-0.001 2.024-1.642 3.664-3.666 3.664-0.002 0-0.005 0-0.007 0h0c-0.002 0-0.005 0-0.007 0-2.024 0-3.665-1.64-3.666-3.664v-18.297h-7.168v8.939c0 7.181-5.853 13.022-13.050 13.022h-0.030c-7.226 0.001-13.080-5.839-13.080-13.021v-12.782c0-0.003-0-0.007-0-0.010 0-1.92 1.556-3.476 3.476-3.476 0.006 0 0.013 0 0.019 0h0.357c1.911 0 3.494 1.55 3.494 3.486v12.812c0 3.129 2.539 5.662 5.674 5.662h0.12c3.136 0 5.674-2.533 5.674-5.662v-12.812c0-0.003-0-0.007-0-0.010 0-1.92 1.556-3.476 3.476-3.476 0.006 0 0.013 0 0.019 0h14.693z"></path>
<path fill="#000" style="fill: var(--color2, #000)" d="M56.534 2.453c0.328-0.536 0.776-1.043 1.374-1.37 1.762-1.014 3.973-0.387 4.989 1.341l5.674 9.803c0.119 0.149 0.238 0.328 0.358 0.506l6.75 11.65c0.311 0.526 0.495 1.16 0.495 1.836 0 1.35-0.732 2.529-1.821 3.161l-0.017 0.009c-0.527 0.31-1.161 0.493-1.838 0.493-1.351 0-2.532-0.73-3.169-1.818l-0.009-0.017c-3.196-5.512-6.391-10.994-9.557-16.507l-6.362 10.995h8.003l4.091 7.33h-18.456c-0.002 0-0.005 0-0.007 0-2.025 0-3.666-1.641-3.666-3.666v-0c0-0.745 0.269-1.43 0.598-2.026 3.972-6.883 8.541-14.72 12.573-21.722z"></path>
</symbol>
</defs>
</svg>
