<svg aria-hidden="true" style="position: absolute; width: 0; height: 0; overflow: hidden;" version="1.1" xmlns="http://www.w3.org/2000/svg" xmlns:xlink="http://www.w3.org/1999/xlink">
<defs>
<symbol id="icon-arrow" viewBox="0 0 19 32">
<path d="M8.695 30.985c0.232 0.232 0.552 0.375 0.905 0.375s0.673-0.143 0.905-0.375l8.146-8.146c0.222-0.23 0.359-0.544 0.359-0.889 0-0.707-0.573-1.28-1.28-1.28-0.346 0-0.659 0.137-0.89 0.36l-7.241 7.241-7.241-7.241c-0.228-0.215-0.537-0.346-0.876-0.346-0.707 0-1.28 0.573-1.28 1.28 0 0.339 0.132 0.648 0.348 0.877l-0.001-0.001 8.146 8.146zM8.32 0.64v29.44h2.56v-29.44h-2.56z"></path>
</symbol>
</defs>
</svg>
