<svg width="226" height="38" viewBox="0 0 226 38" fill="none" xmlns="http://www.w3.org/2000/svg">
<path fill-rule="evenodd" clip-rule="evenodd" d="M113.539 0.22104L110.081 6.58503C109.672 7.35754 109.188 7.90933 108.593 8.31398C107.998 8.71862 107.366 8.90255 106.659 8.90255C106.102 8.90255 105.544 8.7922 104.986 8.57148L105.655 6.51146C106.027 6.62182 106.325 6.6586 106.548 6.6586C106.771 6.6586 106.957 6.62182 107.106 6.54824C107.254 6.47467 107.403 6.36431 107.552 6.18038L104.279 0.22104H107.329L109.04 3.78929L110.787 0.22104H113.539ZM122.576 0.22104V8.68184H119.676V5.55502H116.998V8.68184H114.097V0.22104H116.998V3.20071H119.676V0.22104H122.576ZM124.064 0.22104H126.89V4.63537L129.828 0.22104H132.543V8.68184H129.717V4.30429L126.816 8.68184H124.101V0.22104H124.064ZM140.651 4.23072C141.134 4.41465 141.506 4.63537 141.766 5.00323C142.027 5.3343 142.138 5.73895 142.138 6.21717C142.138 6.98968 141.841 7.57825 141.246 8.01969C140.651 8.46112 139.795 8.68184 138.68 8.68184H134.105V0.22104H138.456C139.498 0.22104 140.353 0.40497 140.911 0.809617C141.506 1.21426 141.766 1.72927 141.766 2.4282C141.766 2.83285 141.655 3.20071 141.469 3.495C141.283 3.78929 141.022 4.04679 140.651 4.23072ZM136.932 3.45821H138.159C138.642 3.45821 138.865 3.2375 138.865 2.83285C138.865 2.39142 138.642 2.20749 138.159 2.20749H136.932V3.45821ZM138.531 6.69539C139.014 6.69539 139.237 6.47467 139.237 6.03324C139.237 5.59181 139.014 5.37109 138.531 5.37109H136.932V6.69539H138.531ZM150.283 6.54824V8.68184H143.179V0.22104H150.134V2.35463H146.006V3.34786H149.613V5.40788H146.006V6.51146H150.283V6.54824ZM155.563 0.22104C156.344 0.22104 157.051 0.368184 157.646 0.625687C158.241 0.883189 158.687 1.25105 158.985 1.72927C159.32 2.20749 159.468 2.75928 159.468 3.42143C159.468 4.08358 159.32 4.63537 158.985 5.11359C158.65 5.59181 158.204 5.95967 157.646 6.21717C157.051 6.47467 156.382 6.62182 155.563 6.62182H154.336V8.71862H151.435V0.257826H155.563V0.22104ZM155.378 4.41465C155.787 4.41465 156.047 4.34108 156.27 4.15715C156.456 3.97322 156.568 3.7525 156.568 3.42143C156.568 3.09035 156.456 2.86964 156.27 2.68571C156.084 2.50178 155.787 2.4282 155.378 2.4282H154.336V4.41465H155.378ZM164.749 8.86577C163.857 8.86577 163.039 8.68184 162.295 8.31398C161.551 7.94612 160.993 7.43111 160.584 6.73217C160.175 6.07003 159.952 5.29752 159.952 4.45144C159.952 3.60536 160.175 2.83285 160.584 2.1707C160.993 1.50855 161.551 0.956761 162.295 0.588901C163.001 0.22104 163.82 0.0371094 164.749 0.0371094C165.567 0.0371094 166.311 0.184254 166.981 0.478542C167.65 0.772831 168.171 1.17748 168.58 1.72927L166.758 3.31107C166.237 2.64892 165.605 2.31785 164.898 2.31785C164.303 2.31785 163.82 2.50178 163.448 2.90642C163.076 3.27428 162.89 3.78929 162.89 4.45144C162.89 5.11359 163.076 5.59181 163.448 5.99645C163.82 6.36431 164.303 6.58503 164.898 6.58503C165.605 6.58503 166.237 6.25396 166.758 5.59181L168.58 7.21039C168.171 7.76219 167.613 8.16683 166.981 8.46112C166.311 8.71862 165.567 8.86577 164.749 8.86577ZM175.385 7.21039H172.15L171.592 8.68184H168.654L172.41 0.22104H175.237L178.993 8.68184H176.018L175.385 7.21039ZM174.567 5.15037L173.749 3.01678L172.931 5.15037H174.567ZM188.179 0.22104V8.68184H185.352V2.4282H183.381L183.344 3.42143C183.307 4.63537 183.195 5.62859 183.046 6.4011C182.898 7.17361 182.6 7.76219 182.191 8.20362C181.782 8.64505 181.187 8.86577 180.443 8.86577C180.071 8.86577 179.662 8.82898 179.216 8.71862L179.365 6.43789C179.476 6.47467 179.588 6.47467 179.699 6.47467C179.997 6.47467 180.22 6.36431 180.406 6.10681C180.555 5.84931 180.666 5.55502 180.741 5.15037C180.815 4.74573 180.852 4.23072 180.852 3.56857L180.964 0.257826H188.179V0.22104ZM194.315 2.83285C195.393 2.83285 196.212 3.05357 196.769 3.53179C197.364 4.01001 197.625 4.70894 197.625 5.62859C197.625 6.62182 197.29 7.39432 196.621 7.90933C195.951 8.42433 195.059 8.71862 193.906 8.71862H189.666V0.257826H192.493V2.86964H194.315V2.83285ZM193.757 6.69539C194.055 6.69539 194.278 6.62182 194.464 6.43789C194.65 6.25396 194.761 5.99645 194.761 5.66538C194.761 5.11359 194.426 4.8193 193.757 4.8193H192.53V6.69539H193.757ZM207.071 0.22104V8.68184H204.17V5.55502H201.492V8.68184H198.592V0.22104H201.492V3.20071H204.17V0.22104H207.071ZM214.62 7.21039H211.385L210.827 8.68184H207.889L211.645 0.22104H214.472L218.228 8.68184H215.252L214.62 7.21039ZM213.839 5.15037L213.021 3.01678L212.203 5.15037H213.839ZM226 0.22104V8.68184H223.137V6.6586H222.393L221.091 8.68184H218.079L219.752 6.25396C219.195 5.99645 218.785 5.62859 218.488 5.15037C218.19 4.67215 218.042 4.12036 218.042 3.45821C218.042 2.79606 218.19 2.20749 218.525 1.72927C218.86 1.25105 219.306 0.846403 219.901 0.588901C220.496 0.331398 221.203 0.184254 222.021 0.184254H226V0.22104ZM222.021 2.4282C221.277 2.4282 220.905 2.75928 220.905 3.45821C220.905 4.15715 221.277 4.52501 222.021 4.52501H223.137V2.4282H222.021ZM118.337 21.042H115.101L114.544 22.5134H111.568L115.325 14.0526H118.151L121.907 22.5134H118.932L118.337 21.042ZM117.556 18.9819L116.738 16.8483L115.92 18.9819H117.556ZM128.676 18.1726L131.204 22.5134H127.932L126.295 19.4602H125.477V22.5134H122.576V14.0526H125.477V17.2162H126.37L128.192 14.0526H131.204L128.676 18.1726ZM137.601 21.042H134.366L133.808 22.5134H130.87L134.626 14.0526H137.452L141.208 22.5134H138.233L137.601 21.042ZM136.783 18.9819L135.965 16.8483L135.147 18.9819H136.783ZM151.659 20.3062V24.1688H149.018V22.5134H144.146V24.1688H141.506V20.3062H141.766C142.25 20.3062 142.622 20.0119 142.808 19.3866C142.993 18.7612 143.142 17.8416 143.217 16.6276L143.328 14.0526H150.58V20.3062H151.659ZM145.708 16.8483C145.671 17.6576 145.597 18.3566 145.522 18.9084C145.411 19.4602 145.262 19.9384 145.076 20.2695H147.717V16.223H145.745L145.708 16.8483ZM159.729 20.343V22.4766H152.626V14.0158H159.58V16.1862H155.452V17.1794H159.059V19.2394H155.452V20.343H159.729ZM168.543 22.5134L168.505 18.6509L166.646 21.7409H165.382L163.522 18.7612V22.4766H160.882V14.0158H163.262L166.051 18.5405L168.766 14.0158H171.146L171.183 22.4766H168.543V22.5134ZM172.671 14.0526H175.497V18.4669L178.435 14.0526H181.15V22.5134H178.323V18.1359L175.385 22.5134H172.671V14.0526ZM190.187 14.0526V22.5134H187.36V20.4902H186.579L185.278 22.5134H182.265L183.939 20.0855C183.381 19.828 182.972 19.4602 182.675 18.9819C182.377 18.5037 182.228 17.9519 182.228 17.2898C182.228 16.6276 182.377 16.0391 182.712 15.5608C183.046 15.0826 183.493 14.678 184.088 14.4205C184.683 14.163 185.389 14.0158 186.208 14.0158H190.187V14.0526ZM186.208 16.2598C185.464 16.2598 185.092 16.5908 185.092 17.2898C185.092 17.9887 185.464 18.3566 186.208 18.3566H187.323V16.2598H186.208ZM126.928 30.0913H124.436V36.345H121.61V30.0913H119.118V27.8842H126.965V30.0913H126.928ZM131.985 27.8842C132.766 27.8842 133.473 28.0313 134.068 28.2888C134.663 28.5463 135.109 28.9142 135.407 29.3924C135.742 29.8706 135.89 30.4224 135.89 31.0846C135.89 31.7467 135.742 32.2985 135.407 32.7767C135.072 33.2549 134.626 33.6228 134.068 33.8803C133.473 34.1378 132.804 34.2849 131.985 34.2849H130.758V36.3818H127.857V27.921H131.985V27.8842ZM131.799 32.041C132.209 32.041 132.469 31.9674 132.692 31.7835C132.878 31.5996 132.99 31.3788 132.99 31.0478C132.99 30.7167 132.878 30.496 132.692 30.3121C132.506 30.1281 132.209 30.0545 131.799 30.0545H130.758V32.041H131.799ZM143.886 34.1746V36.3082H136.783V27.8474H143.737V29.981H139.609V30.9742H143.217V33.0342H139.609V34.1378H143.886V34.1746ZM145.039 27.8842H147.865V32.2985L150.803 27.8842H153.518V36.345H150.692V31.9306L147.754 36.3082H145.039V27.8842ZM149.278 27.406C148.349 27.406 147.642 27.222 147.233 26.8909C146.824 26.5599 146.601 26.0081 146.601 25.3459H148.535C148.535 25.6034 148.572 25.8242 148.683 25.9345C148.795 26.0449 148.981 26.1184 149.278 26.1184C149.539 26.1184 149.762 26.0449 149.874 25.9345C149.985 25.8242 150.059 25.6034 150.059 25.3459H151.993C151.993 26.0449 151.77 26.5599 151.361 26.8909C150.915 27.222 150.245 27.406 149.278 27.406ZM164.638 34.1378V38.0003H161.997V36.345H157.125V38.0003H154.485V34.1378H154.745C155.229 34.1378 155.601 33.8435 155.787 33.2182C155.973 32.5928 156.121 31.6731 156.196 30.4592L156.307 27.8842H163.559V34.1378H164.638ZM158.687 30.6799C158.65 31.4892 158.576 32.1881 158.501 32.7399C158.39 33.2917 158.241 33.7699 158.055 34.101H160.696V30.0545H158.725L158.687 30.6799ZM165.605 27.8842H168.431V32.2985L171.369 27.8842H174.084V36.345H171.257V31.9306L168.319 36.3082H165.605V27.8842ZM184.051 27.8842V36.345H181.15V33.2182H178.509V36.345H175.609V27.8842H178.509V30.8638H181.187V27.8842H184.051ZM192.083 30.0913H188.402V36.345H185.575V27.8842H192.083V30.0913ZM197.364 34.8735H194.129L193.571 36.345H190.633L194.389 27.8842H197.216L200.972 36.345H197.997L197.364 34.8735ZM196.546 32.8135L195.728 30.6799L194.91 32.8135H196.546Z" fill="white"/>
<path fill-rule="evenodd" clip-rule="evenodd" d="M46.0776 0H68.0194L62.7385 9.04937H50.6519V31.636C50.6519 34.1374 48.6065 36.1607 46.0776 36.1607C43.5488 36.1607 41.5033 34.1374 41.5033 31.636V9.04937H32.5779V20.0852C32.5779 28.9506 25.2888 36.1607 16.3261 36.1607H16.2889C7.28912 36.1607 0 28.9506 0 20.0852V4.30397C0 1.91287 1.93385 0 4.35116 0H4.79743C7.17755 0 9.14859 1.91287 9.14859 4.30397V20.122C9.14859 23.9845 12.3097 27.1113 16.2146 27.1113H16.3633C20.2682 27.1113 23.4293 23.9845 23.4293 20.122V4.52468V4.30397C23.4293 1.91287 25.3632 0 27.7805 0H28.0036H28.2267H46.0776ZM70.3995 2.31752C70.8086 1.65537 71.3664 1.03001 72.1102 0.625363C74.3044 -0.625363 77.0564 0.147144 78.3208 2.28073L85.3868 14.3833C85.5356 14.5673 85.6843 14.788 85.8331 15.0087L94.2379 29.3921C95.5023 31.5624 94.7585 34.3214 92.5644 35.5721C90.3702 36.8228 87.581 36.0871 86.3166 33.9167C82.3373 27.1113 78.358 20.3427 74.416 13.5373L66.4946 27.1113H76.4614L81.5563 36.1607H58.5733C56.0444 36.1607 53.999 34.1374 53.999 31.636C53.999 30.7163 54.3337 29.8703 54.7428 29.1345C59.689 20.637 65.3789 10.9622 70.3995 2.31752Z" fill="url(#paint0_linear)"/>
<path d="M76.1691 27.6113H66.4946H65.6239L66.0628 26.8593L73.9841 13.2853L74.4176 12.5425L74.8486 13.2866C77.732 18.2644 80.6351 23.2221 83.5442 28.1901C84.6116 30.0129 85.6798 31.8372 86.7482 33.6644L86.7486 33.665C87.8731 35.5952 90.3577 36.2544 92.3168 35.1377C94.2705 34.0241 94.9295 31.5732 93.8062 29.6443L76.1691 27.6113ZM76.1691 27.6113L80.701 35.6607H58.5733C56.3154 35.6607 54.499 33.8562 54.499 31.636C54.499 30.8384 54.7893 30.0807 55.1774 29.3817C57.4109 25.5446 59.7979 21.4643 62.2066 17.3469C65.1268 12.3552 68.0789 7.30881 70.8284 2.57463C71.2062 1.96471 71.7053 1.41485 72.3492 1.06457L72.3492 1.06466L72.3578 1.05975C74.3099 -0.052996 76.7616 0.631905 77.89 2.53441C77.8902 2.53482 77.8905 2.53524 77.8907 2.53565L84.955 14.6354L84.9742 14.6682L84.9981 14.6978C85.1278 14.8582 85.2612 15.0549 85.4095 15.2748L93.8059 29.6437L76.1691 27.6113ZM46.0776 0.5H67.1487L62.4514 8.54937H50.6519H50.1519V9.04937V31.636C50.1519 33.8562 48.3355 35.6607 46.0776 35.6607C43.8198 35.6607 42.0033 33.8562 42.0033 31.636V9.04937V8.54937H41.5033H32.5779H32.0779V9.04937V20.0852C32.0779 28.6693 25.0178 35.6607 16.3261 35.6607H16.2889C7.55936 35.6607 0.5 28.6686 0.5 20.0852V4.30397C0.5 2.19414 2.20484 0.5 4.35116 0.5H4.79743C6.90936 0.5 8.64859 2.1969 8.64859 4.30397V20.122C8.64859 24.2658 12.0387 27.6113 16.2146 27.6113H16.3633C20.5392 27.6113 23.9293 24.2658 23.9293 20.122V4.52468V4.30397C23.9293 2.19414 25.6341 0.5 27.7805 0.5H28.0036H28.2267H46.0776Z" stroke="black" stroke-opacity="0.3"/>
<path fill-rule="evenodd" clip-rule="evenodd" d="M90.8538 0.0371094L111.94 36.161H108.63L87.5439 0.0371094H90.8538Z" fill="white"/>
<g clip-path="url(#clip0)">
<path fill-rule="evenodd" clip-rule="evenodd" d="M46.0491 0H67.9772L62.6996 9.03634H50.6206V31.5904C50.6206 34.0883 48.5764 36.1086 46.0491 36.1086C43.5218 36.1086 41.4776 34.0883 41.4776 31.5904V9.03634H32.5577V20.0563C32.5577 28.9089 25.2731 36.1086 16.316 36.1086H16.2789C7.2846 36.1086 0 28.9089 0 20.0563V4.29777C0 1.91012 1.93265 0 4.34846 0H4.79446C7.1731 0 9.14292 1.91012 9.14292 4.29777V20.093C9.14292 23.95 12.3021 27.0723 16.2045 27.0723H16.3532C20.2557 27.0723 23.4148 23.95 23.4148 20.093V4.51817V4.29777C23.4148 1.91012 25.3474 0 27.7633 0H27.9863H28.2093H46.0491Z" fill="url(#paint1_linear)"/>
</g>
<defs>
<linearGradient id="paint0_linear" x1="47.4268" y1="0" x2="47.4268" y2="36.1812" gradientUnits="userSpaceOnUse">
<stop stop-color="#C45AF5"/>
<stop offset="1" stop-color="#302DFF"/>
</linearGradient>
<linearGradient id="paint1_linear" x1="33.9886" y1="0" x2="33.9886" y2="36.1086" gradientUnits="userSpaceOnUse">
<stop stop-color="#BD58F6"/>
<stop offset="1" stop-color="#3A30FF"/>
</linearGradient>
<clipPath id="clip0">
<rect width="94.7742" height="36.1086" fill="white"/>
</clipPath>
</defs>
</svg>
