<svg width="227" height="40" viewBox="0 0 227 40" fill="none" xmlns="http://www.w3.org/2000/svg">
<path fill-rule="evenodd" clip-rule="evenodd" d="M114.042 0.943335L110.568 7.3962C110.157 8.1795 109.671 8.739 109.074 9.1493C108.476 9.55959 107.841 9.74609 107.131 9.74609C106.571 9.74609 106.011 9.63419 105.45 9.41039L106.123 7.32161C106.496 7.4335 106.795 7.4708 107.019 7.4708C107.243 7.4708 107.43 7.4335 107.579 7.3589C107.729 7.2843 107.878 7.17241 108.028 6.98591L104.741 0.943335H107.804L109.522 4.56142L111.277 0.943335H114.042ZM123.119 0.943335V9.52229H120.205V6.35181H117.516V9.52229H114.602V0.943335H117.516V3.96462H120.205V0.943335H123.119ZM124.613 0.943335H127.452V5.41931L130.403 0.943335H133.13V9.52229H130.291V5.08362L127.377 9.52229H124.65V0.943335H124.613ZM141.273 5.00902C141.758 5.19551 142.132 5.41931 142.393 5.79231C142.655 6.12801 142.767 6.53831 142.767 7.02321C142.767 7.8065 142.468 8.4033 141.87 8.8509C141.273 9.2985 140.414 9.52229 139.293 9.52229H134.698V0.943335H139.069C140.115 0.943335 140.974 1.12983 141.534 1.54013C142.132 1.95043 142.393 2.47263 142.393 3.18132C142.393 3.59162 142.281 3.96462 142.094 4.26302C141.908 4.56142 141.646 4.82252 141.273 5.00902ZM137.537 4.22572H138.77C139.256 4.22572 139.48 4.00192 139.48 3.59162C139.48 3.14402 139.256 2.95753 138.77 2.95753H137.537V4.22572ZM139.144 7.5081C139.629 7.5081 139.853 7.2843 139.853 6.83671C139.853 6.38911 139.629 6.16531 139.144 6.16531H137.537V7.5081H139.144ZM150.947 7.3589V9.52229H143.813V0.943335H150.798V3.10672H146.652V4.11382H150.275V6.20261H146.652V7.32161H150.947V7.3589ZM156.252 0.943335C157.036 0.943335 157.746 1.09253 158.343 1.35363C158.941 1.61473 159.389 1.98773 159.688 2.47263C160.024 2.95753 160.174 3.51702 160.174 4.18842C160.174 4.85982 160.024 5.41931 159.688 5.90421C159.352 6.38911 158.904 6.76211 158.343 7.02321C157.746 7.2843 157.073 7.4335 156.252 7.4335H155.019V9.55959H152.105V0.980635H156.252V0.943335ZM156.065 5.19551C156.476 5.19551 156.737 5.12092 156.961 4.93442C157.148 4.74792 157.26 4.52412 157.26 4.18842C157.26 3.85272 157.148 3.62892 156.961 3.44242C156.775 3.25592 156.476 3.18132 156.065 3.18132H155.019V5.19551H156.065ZM165.478 9.70879C164.582 9.70879 163.76 9.52229 163.013 9.1493C162.266 8.7763 161.705 8.2541 161.294 7.5454C160.883 6.87401 160.659 6.09071 160.659 5.23281C160.659 4.37492 160.883 3.59162 161.294 2.92023C161.705 2.24883 162.266 1.68933 163.013 1.31633C163.722 0.943335 164.544 0.756836 165.478 0.756836C166.3 0.756836 167.047 0.906035 167.719 1.20443C168.392 1.50283 168.915 1.91313 169.325 2.47263L167.495 4.07652C166.972 3.40512 166.337 3.06943 165.627 3.06943C165.03 3.06943 164.544 3.25592 164.171 3.66622C163.797 4.03922 163.61 4.56142 163.61 5.23281C163.61 5.90421 163.797 6.38911 164.171 6.79941C164.544 7.17241 165.03 7.3962 165.627 7.3962C166.337 7.3962 166.972 7.06051 167.495 6.38911L169.325 8.0303C168.915 8.5898 168.354 9.0001 167.719 9.2985C167.047 9.55959 166.3 9.70879 165.478 9.70879ZM176.161 8.0303H172.911L172.351 9.52229H169.4L173.173 0.943335H176.012L179.785 9.52229H176.796L176.161 8.0303ZM175.339 5.94151L174.518 3.77812L173.696 5.94151H175.339ZM189.011 0.943335V9.52229H186.172V3.18132H184.192L184.155 4.18842C184.118 5.41931 184.006 6.42641 183.856 7.20971C183.707 7.993 183.408 8.5898 182.997 9.0374C182.586 9.48499 181.988 9.70879 181.241 9.70879C180.868 9.70879 180.457 9.67149 180.009 9.55959L180.158 7.247C180.27 7.28431 180.382 7.28431 180.494 7.28431C180.793 7.28431 181.017 7.17241 181.204 6.91131C181.353 6.65021 181.466 6.35181 181.54 5.94151C181.615 5.53121 181.652 5.00902 181.652 4.33762L181.764 0.980635H189.011V0.943335ZM195.174 3.59162C196.258 3.59162 197.079 3.81542 197.64 4.30032C198.237 4.78522 198.499 5.49391 198.499 6.42641C198.499 7.4335 198.163 8.2168 197.49 8.739C196.818 9.2612 195.922 9.55959 194.764 9.55959H190.505V0.980635H193.344V3.62892H195.174V3.59162ZM194.614 7.5081C194.913 7.5081 195.137 7.4335 195.324 7.247C195.511 7.06051 195.623 6.79941 195.623 6.46371C195.623 5.90421 195.286 5.60581 194.614 5.60581H193.381V7.5081H194.614ZM207.987 0.943335V9.52229H205.073V6.35181H202.384V9.52229H199.47V0.943335H202.384V3.96462H205.073V0.943335H207.987ZM215.57 8.0303H212.32L211.76 9.52229H208.809L212.581 0.943335H215.42L219.193 9.52229H216.205L215.57 8.0303ZM214.785 5.94151L213.963 3.77812L213.142 5.94151H214.785ZM227 0.943335V9.52229H224.124V7.4708H223.377L222.069 9.52229H219.044L220.725 7.06051C220.164 6.79941 219.753 6.42641 219.454 5.94151C219.156 5.45661 219.006 4.89712 219.006 4.22572C219.006 3.55432 219.156 2.95753 219.492 2.47263C219.828 1.98773 220.276 1.57743 220.874 1.31633C221.472 1.05523 222.181 0.906035 223.003 0.906035H227V0.943335ZM223.003 3.18132C222.256 3.18132 221.882 3.51702 221.882 4.22572C221.882 4.93442 222.256 5.30741 223.003 5.30741H224.124V3.18132H223.003ZM118.86 22.055H115.611L115.05 23.547H112.062L115.835 14.9681H118.674L122.446 23.547H119.458L118.86 22.055ZM118.076 19.9662L117.254 17.8029L116.432 19.9662H118.076ZM129.245 19.1457L131.785 23.547H128.498L126.854 20.4511H126.032V23.547H123.119V14.9681H126.032V18.1759H126.929L128.759 14.9681H131.785L129.245 19.1457ZM138.21 22.055H134.96L134.4 23.547H131.449L135.221 14.9681H138.06L141.833 23.547H138.845L138.21 22.055ZM137.388 19.9662L136.566 17.8029L135.744 19.9662H137.388ZM152.329 21.309V25.2255H149.677V23.547H144.784V25.2255H142.132V21.309H142.393C142.879 21.309 143.252 21.0106 143.439 20.3765C143.626 19.7424 143.775 18.81 143.85 17.5791L143.962 14.9681H151.246V21.309H152.329ZM146.353 17.8029C146.315 18.6235 146.241 19.3321 146.166 19.8916C146.054 20.4511 145.905 20.936 145.718 21.2717H148.37V17.1688H146.39L146.353 17.8029ZM160.435 21.3463V23.5097H153.301V14.9308H160.286V17.1315H156.14V18.1386H159.763V20.2273H156.14V21.3463H160.435ZM169.288 23.547L169.251 19.6305L167.383 22.7637H166.113L164.245 19.7424V23.5097H161.593V14.9308H163.984L166.785 19.5186L169.512 14.9308H171.903L171.94 23.5097H169.288V23.547ZM173.434 14.9681H176.273V19.444L179.224 14.9681H181.951V23.547H179.112V19.1083L176.161 23.547H173.434V14.9681ZM191.028 14.9681V23.547H188.189V21.4955H187.405L186.097 23.547H183.072L184.753 21.0852C184.192 20.8241 183.781 20.4511 183.483 19.9662C183.184 19.4813 183.034 18.9219 183.034 18.2505C183.034 17.5791 183.184 16.9823 183.52 16.4974C183.856 16.0125 184.304 15.6022 184.902 15.3411C185.5 15.08 186.209 14.9308 187.031 14.9308H191.028V14.9681ZM187.031 17.2061C186.284 17.2061 185.911 17.5418 185.911 18.2505C185.911 18.9592 186.284 19.3321 187.031 19.3321H188.152V17.2061H187.031ZM127.489 31.2308H124.986V37.5718H122.147V31.2308H119.645V28.9928H127.526V31.2308H127.489ZM132.569 28.9928C133.354 28.9928 134.063 29.142 134.661 29.4031C135.259 29.6642 135.707 30.0372 136.006 30.5221C136.342 31.007 136.491 31.5665 136.491 32.2379C136.491 32.9093 136.342 33.4688 136.006 33.9537C135.67 34.4386 135.221 34.8116 134.661 35.0727C134.063 35.3338 133.391 35.483 132.569 35.483H131.337V37.6091H128.423V29.0301H132.569V28.9928ZM132.382 33.2077C132.793 33.2077 133.055 33.1331 133.279 32.9466C133.466 32.7601 133.578 32.5363 133.578 32.2006C133.578 31.8649 133.466 31.6411 133.279 31.4546C133.092 31.2681 132.793 31.1935 132.382 31.1935H131.337V33.2077H132.382ZM144.522 35.3711V37.5345H137.388V28.9555H144.373V31.1189H140.227V32.126H143.85V34.2148H140.227V35.3338H144.522V35.3711ZM145.68 28.9928H148.519V33.4688L151.47 28.9928H154.197V37.5718H151.358V33.0958L148.407 37.5345H145.68V28.9928ZM149.939 28.5079C149.005 28.5079 148.295 28.3214 147.884 27.9857C147.473 27.65 147.249 27.0905 147.249 26.4191H149.192C149.192 26.6802 149.229 26.904 149.341 27.0159C149.453 27.1278 149.64 27.2024 149.939 27.2024C150.2 27.2024 150.424 27.1278 150.536 27.0159C150.649 26.904 150.723 26.6802 150.723 26.4191H152.666C152.666 27.1278 152.442 27.65 152.031 27.9857C151.582 28.3214 150.91 28.5079 149.939 28.5079ZM165.366 35.3338V39.2503H162.714V37.5718H157.82V39.2503H155.168V35.3338H155.43C155.915 35.3338 156.289 35.0354 156.476 34.4013C156.663 33.7672 156.812 32.8347 156.887 31.6038L156.999 28.9928H164.283V35.3338H165.366ZM159.389 31.8276C159.352 32.6482 159.277 33.3569 159.203 33.9164C159.091 34.4759 158.941 34.9608 158.754 35.2965H161.406V31.1935H159.427L159.389 31.8276ZM166.337 28.9928H169.176V33.4688L172.127 28.9928H174.854V37.5718H172.015V33.0958L169.064 37.5345H166.337V28.9928ZM184.865 28.9928V37.5718H181.951V34.4013H179.299V37.5718H176.385V28.9928H179.299V32.0141H181.988V28.9928H184.865ZM192.933 31.2308H189.235V37.5718H186.396V28.9928H192.933V31.2308ZM198.237 36.0798H194.988L194.427 37.5718H191.476L195.249 28.9928H198.088L201.861 37.5718H198.872L198.237 36.0798ZM197.416 33.991L196.594 31.8276L195.772 33.991H197.416Z" fill="#19234C"/>
<path fill-rule="evenodd" clip-rule="evenodd" d="M91.2557 0.756836L112.435 37.3853H109.111L87.9312 0.756836H91.2557Z" fill="#19234C"/>
<g clip-path="url(#clip0)">
<path fill-rule="evenodd" clip-rule="evenodd" d="M46.2529 0.719727H68.278L62.9771 9.88226H50.8445V32.7514C50.8445 35.2841 48.7914 37.3326 46.2529 37.3326C43.7144 37.3326 41.6612 35.2841 41.6612 32.7514V9.88226H32.7018V21.0561C32.7018 30.0324 25.3849 37.3326 16.3882 37.3326H16.3509C7.31684 37.3326 0 30.0324 0 21.0561V5.07752C0 2.65652 1.9412 0.719727 4.3677 0.719727H4.81567C7.20484 0.719727 9.18338 2.65652 9.18338 5.07752V21.0933C9.18338 25.0042 12.3565 28.1701 16.2762 28.1701H16.4256C20.3453 28.1701 23.5184 25.0042 23.5184 21.0933V5.30099V5.07752C23.5184 2.65652 25.4596 0.719727 27.8861 0.719727H28.1101H28.3341H46.2529Z" fill="url(#paint0_linear)"/>
<path fill-rule="evenodd" clip-rule="evenodd" d="M70.6672 3.06607C71.0778 2.39564 71.6378 1.76245 72.3844 1.35275C74.5869 0.0863798 77.3494 0.868547 78.6187 3.02882L85.7115 15.2828C85.8608 15.469 86.0102 15.6925 86.1595 15.916L94.5962 30.4792C95.8655 32.6767 95.1189 35.4702 92.9163 36.7365C90.7138 38.0029 87.914 37.258 86.6448 35.0604C82.6504 28.1699 78.656 21.3166 74.6989 14.4261L66.7475 28.1699H76.7521L81.8664 37.3325H58.796C56.2575 37.3325 54.2043 35.2839 54.2043 32.7512C54.2043 31.82 54.5403 30.9634 54.9509 30.2185C59.9159 21.6146 65.6275 11.8189 70.6672 3.06607Z" fill="url(#paint1_linear)"/>
</g>
<defs>
<linearGradient id="paint0_linear" x1="34.139" y1="0.719727" x2="34.139" y2="37.3326" gradientUnits="userSpaceOnUse">
<stop stop-color="#BD58F6"/>
<stop offset="1" stop-color="#3A30FF"/>
</linearGradient>
<linearGradient id="paint1_linear" x1="74.7093" y1="0.744141" x2="74.7093" y2="37.3532" gradientUnits="userSpaceOnUse">
<stop stop-color="#BD58F6"/>
<stop offset="1" stop-color="#3A30FF"/>
</linearGradient>
<clipPath id="clip0">
<rect width="95.1935" height="36.6129" fill="white" transform="translate(0 0.719727)"/>
</clipPath>
</defs>
</svg>
