<svg width="65" height="65" viewBox="0 0 65 65" fill="none" xmlns="http://www.w3.org/2000/svg">
<path d="M62.721 29.7881H46.8423C46.2993 29.7881 45.8579 30.2295 45.8579 30.7739C45.8579 31.3169 46.2993 31.7597 46.8423 31.7597H55.4696C55.9218 35.7192 59.0729 38.9123 63.0297 39.4187V51.0318C63.0297 51.5748 63.4698 52.0176 64.0142 52.0176C64.5572 52.0176 65 51.5762 65 51.0318V32.0671C64.9986 30.8105 63.9762 29.7881 62.721 29.7881ZM57.4818 31.7584H62.7196C62.8902 31.7584 63.0297 31.8965 63.0297 32.0671V37.401C60.1644 36.9203 57.9138 34.6291 57.4818 31.7584Z" fill="black"/>
<path d="M63.9991 55.3006C59.5995 55.3683 55.9664 58.7496 55.4748 63.026C55.4748 63.0273 55.4694 63.0287 55.4694 63.03H32.5032C31.9602 63.03 31.5174 63.4701 31.5174 64.0145C31.5174 64.5588 31.9589 65.0003 32.5032 65.0003H62.7195C63.9761 65.0003 64.9985 63.9779 64.9985 62.7213V56.2864C64.9985 56.0223 64.8929 55.7691 64.7046 55.585C64.5164 55.3981 64.2551 55.283 63.9991 55.3006ZM63.0296 62.7213C63.0296 62.8919 62.8901 63.0314 62.7195 63.0314H57.4546C57.8825 60.1525 60.1561 57.8396 63.0282 57.3616V62.7213H63.0296Z" fill="black"/>
<path d="M27.2508 63.0293H22.0239C21.4808 63.0293 21.0394 63.4694 21.0394 64.0138C21.0394 64.5581 21.4795 64.9996 22.0239 64.9996H27.2508C27.7938 64.9996 28.2366 64.5595 28.2366 64.0138C28.2366 63.4694 27.7952 63.0293 27.2508 63.0293Z" fill="black"/>
<path d="M16.7724 63.0298H9.64959C9.19596 59.0067 5.99206 55.8028 1.96892 55.3492V39.438C1.97569 39.4367 1.9811 39.4313 1.98788 39.4313C5.99613 38.9695 9.17971 35.7832 9.64011 31.7763C9.64147 31.7695 9.64824 31.7641 9.64959 31.7587H40.2761C40.8191 31.7587 41.2619 31.3173 41.2619 30.7729V21.7476C41.2619 21.2046 40.8205 20.7631 40.2761 20.7631H35.9808L45.1727 11.5712L54.366 20.7631H50.072C49.529 20.7631 49.0862 21.2046 49.0862 21.7476V25.3347C49.0862 25.879 49.5276 26.3205 50.072 26.3205C50.615 26.3205 51.0551 25.8804 51.0551 25.3347V22.7334H56.7425C57.1419 22.7334 57.5008 22.4937 57.6524 22.1254C57.8041 21.7584 57.7215 21.3346 57.4398 21.0529L45.8687 9.48179C45.4842 9.09722 44.8613 9.09722 44.4767 9.48179L32.9056 21.0529C32.6239 21.3346 32.5399 21.7584 32.6916 22.1254C32.8446 22.4937 33.2035 22.7334 33.6029 22.7334H39.2903V29.7884H2.27902C1.02238 29.7884 0 30.8108 0 32.0675V62.7211C0 63.9777 1.02238 65.0001 2.27902 65.0001H16.7724C17.3154 65.0001 17.7555 64.56 17.7555 64.0143C17.7568 63.4699 17.3154 63.0298 16.7724 63.0298ZM1.96892 32.0675C1.96892 31.8968 2.10839 31.7587 2.27902 31.7587H7.66442C7.23381 34.6931 4.90604 37.0209 1.97027 37.4515V32.0675H1.96892ZM2.27902 63.0298C2.10839 63.0298 1.96892 62.8904 1.96892 62.7197V57.3628C4.89792 57.7961 7.20131 60.0995 7.63599 63.0298H2.27902Z" fill="black"/>
<path d="M49.2161 52.3188H51.1417C53.3259 52.3188 55.1039 50.5421 55.1039 48.3565V46.431C55.1039 44.2467 53.3259 42.4688 51.1417 42.4688H49.2161C47.0319 42.4688 45.2539 44.2467 45.2539 46.431V48.3565C45.2539 50.5408 47.0319 52.3188 49.2161 52.3188ZM47.2228 46.431C47.2228 45.3328 48.1165 44.439 49.2161 44.439H51.1417C52.2412 44.439 53.1336 45.3328 53.1336 46.431V48.3565C53.1336 49.4547 52.2412 50.3485 51.1417 50.3485H49.2161C48.1165 50.3485 47.2228 49.4547 47.2228 48.3565V46.431Z" fill="black"/>
<path d="M15.784 42.4707H13.8584C11.6742 42.4707 9.89618 44.2487 9.89618 46.4329V48.3585C9.89618 50.5427 11.6742 52.3207 13.8584 52.3207H15.784C17.9682 52.3207 19.7462 50.5441 19.7462 48.3585V46.4329C19.7448 44.2473 17.9682 42.4707 15.784 42.4707ZM17.7759 48.3571C17.7759 49.4553 16.8822 50.3491 15.7826 50.3491H13.8584C12.7588 50.3491 11.8665 49.4553 11.8665 48.3571V46.4316C11.8665 45.3334 12.7588 44.4396 13.8584 44.4396H15.784C16.8835 44.4396 17.7773 45.3334 17.7773 46.4316V48.3571H17.7759Z" fill="black"/>
<path d="M32.4912 58.6029C33.0343 58.6029 33.4771 58.1628 33.4771 57.6185V56.3063C35.9903 55.8825 37.9051 53.8499 37.9051 51.403C37.9051 48.9886 36.4832 46.4089 32.4926 46.4089C29.6597 46.4089 29.0653 44.7636 29.0653 43.3851C29.0653 41.7182 30.6036 40.3613 32.4926 40.3613C33.9185 40.3613 35.2117 41.1562 35.7073 42.337C35.9186 42.8381 36.4941 43.0737 36.9978 42.8624C37.4988 42.6525 37.7331 42.0743 37.5232 41.5733C36.8326 39.9307 35.2984 38.7905 33.4784 38.4845V37.1723C33.4784 36.6293 33.037 36.1865 32.4926 36.1865C31.9496 36.1865 31.5068 36.628 31.5068 37.1723V38.4845C29.0003 38.9151 27.095 40.945 27.095 43.3865C27.095 45.8009 28.5128 48.3819 32.4912 48.3819C35.3376 48.3819 35.9348 50.0272 35.9348 51.4057C35.9348 53.0726 34.3965 54.4295 32.5075 54.4295C31.0816 54.4295 29.7884 53.636 29.2928 52.4551C29.0842 51.9528 28.506 51.7158 28.0036 51.927C27.5026 52.1369 27.267 52.7138 27.4769 53.2162C28.1648 54.8547 29.6922 55.9935 31.5068 56.3036V57.6198C31.5068 58.1615 31.9482 58.6029 32.4912 58.6029Z" fill="black"/>
<path d="M8.65439 13.54H14.3431V24.5356C14.3431 24.9148 14.5611 25.2601 14.9024 25.4239C15.0392 25.4889 15.1827 25.5201 15.3289 25.5201C15.5497 25.5201 15.7663 25.4456 15.9451 25.3021L20.2255 21.8599L24.5073 25.3021C24.8025 25.5418 25.2074 25.5851 25.55 25.4239C25.8912 25.2601 26.1092 24.9148 26.1092 24.5356V13.54H31.798C32.1961 13.54 32.5563 13.3003 32.708 12.932C32.8596 12.5637 32.7757 12.1412 32.494 11.8595L20.9229 0.288431C20.5383 -0.0961438 19.9141 -0.0961438 19.5308 0.288431L7.95972 11.8595C7.67806 12.1412 7.5941 12.565 7.74577 12.932C7.89608 13.3017 8.25628 13.54 8.65439 13.54ZM20.2255 2.37787L29.4201 11.5711H25.1234C24.5804 11.5711 24.139 12.0112 24.139 12.5556V22.4814L20.8403 19.83C20.6615 19.6838 20.4422 19.6133 20.2242 19.6133C20.0061 19.6133 19.7868 19.6865 19.608 19.83L16.312 22.4814V12.5556C16.312 12.0126 15.8706 11.5711 15.3276 11.5711H11.0309L20.2255 2.37787Z" fill="black"/>
</svg>
