<svg width="65" height="65" viewBox="0 0 65 65" fill="none" xmlns="http://www.w3.org/2000/svg">
<path d="M8.30109 39.747C8.30109 41.9064 9.91936 43.6648 11.9114 43.6648H13.271C15.263 43.6648 16.8827 41.9079 16.8827 39.747V38.2722C16.8827 36.1128 15.263 34.3545 13.271 34.3545H11.9114C9.91936 34.3545 8.30109 36.1114 8.30109 38.2722V39.747ZM10.2701 38.2722C10.2701 37.2909 11.0068 36.4918 11.9114 36.4918H13.271C14.177 36.4918 14.9123 37.2895 14.9123 38.2722V39.747C14.9123 40.7283 14.177 41.5274 13.271 41.5274H11.9114C11.0068 41.5274 10.2701 40.7298 10.2701 39.747V38.2722Z" fill="black"/>
<path d="M27.4201 28.6348C26.877 28.6348 26.4342 29.1136 26.4342 29.7042V30.753C24.323 31.2099 22.7332 33.1004 22.7332 35.3611C22.7332 37.6424 23.9628 40.078 27.4201 40.078C29.232 40.078 30.1515 40.9476 30.1515 42.6589C30.1515 44.0823 28.9327 45.2399 27.4336 45.2399C26.3001 45.2399 25.2736 44.5598 24.8823 43.5476C24.6697 43.0041 24.0874 42.7485 23.5917 42.9777C23.0907 43.2068 22.8564 43.8341 23.0663 44.3776C23.6486 45.8789 24.9175 46.9307 26.4342 47.2582V48.3174C26.4342 48.9064 26.8757 49.3853 27.4201 49.3853C27.9631 49.3853 28.4046 48.9064 28.4046 48.3174V47.2729C30.5239 46.8205 32.1219 44.9255 32.1219 42.6589C32.1219 40.3776 30.8868 37.9421 27.4201 37.9421C25.6163 37.9421 24.7022 37.0725 24.7022 35.3611C24.7022 33.9377 25.921 32.7802 27.4201 32.7802C28.5549 32.7802 29.5814 33.4603 29.9727 34.4724C30.1853 35.0174 30.7676 35.2701 31.2633 35.0424C31.7643 34.8132 31.9986 34.186 31.7887 33.6424C31.2051 32.1368 29.928 31.0821 28.4046 30.7574V29.7027C28.4046 29.1122 27.9644 28.6348 27.4201 28.6348Z" fill="black"/>
<path d="M38.9576 22.8115H12.7267C12.1837 22.8115 11.7408 23.2904 11.7408 23.8795C11.7408 24.47 12.1823 24.9474 12.7267 24.9474H37.9718V25.3029C37.9718 25.8934 38.4132 26.3723 38.9576 26.3723C39.5007 26.3723 39.9435 25.8934 39.9435 25.3029V23.8853C39.9435 23.8839 39.9448 23.8809 39.9448 23.878C39.9421 23.2904 39.5007 22.8115 38.9576 22.8115Z" fill="black"/>
<path d="M38.9564 44.1709C38.4134 44.1709 37.9706 44.6498 37.9706 45.2388V47.7302C37.9706 48.3192 38.4121 48.7981 38.9564 48.7981C39.4995 48.7981 39.9423 48.3192 39.9423 47.7302V45.2388C39.9423 44.6483 39.4995 44.1709 38.9564 44.1709Z" fill="black"/>
<path d="M38.9564 36.6953C38.4134 36.6953 37.9706 37.1742 37.9706 37.7632V40.2546C37.9706 40.8437 38.4121 41.3225 38.9564 41.3225C39.4995 41.3225 39.9423 40.8437 39.9423 40.2546V37.7632C39.9423 37.1742 39.4995 36.6953 38.9564 36.6953Z" fill="black"/>
<path d="M38.9564 29.2188C38.4134 29.2188 37.9706 29.6976 37.9706 30.2867V32.7795C37.9706 33.3686 38.4121 33.8474 38.9564 33.8474C39.4995 33.8474 39.9423 33.3686 39.9423 32.7795V30.2867C39.9423 29.6976 39.4995 29.2188 38.9564 29.2188Z" fill="black"/>
<path d="M38.9564 51.6457C38.4133 51.6457 37.9705 52.1246 37.9705 52.7151V53.0706H8.38523C7.94376 49.454 5.30171 46.5866 1.96766 46.1078V31.9103C5.62401 31.3844 8.45835 27.9881 8.45835 23.8795C8.45835 23.2904 8.01688 22.8115 7.47385 22.8115H2.06922C0.927628 22.8115 0 23.8192 0 25.0576V30.9202V47.0964V52.959C0 54.1973 0.928982 55.205 2.06922 55.205H7.47385H38.9577C39.5008 55.205 39.9436 54.7261 39.9436 54.1371V52.7122C39.9422 52.1246 39.4994 51.6457 38.9564 51.6457ZM1.96766 25.0576C1.96766 24.9973 2.01235 24.9474 2.06787 24.9474H6.39996C5.99099 27.3859 4.21564 29.3146 1.96766 29.7553V25.0576ZM2.06787 53.0692C2.01235 53.0692 1.96766 53.0207 1.96766 52.959V48.2598C4.21564 48.7019 5.99235 50.6307 6.39996 53.0677H2.06787V53.0692Z" fill="black"/>
<path d="M64.7607 35.0574C64.5034 34.5256 64.0714 34.1364 63.5433 33.9571L58.4772 32.2502L50.3357 29.5062C49.813 29.3314 49.2646 29.6472 49.1034 30.2098L48.7134 31.5701C48.5523 32.1342 48.8421 32.7335 49.3621 32.9083C49.4596 32.9406 49.5598 32.9568 49.6546 32.9568C50.0757 32.9568 50.4644 32.663 50.5944 32.2061L50.6919 31.8653L57.0147 33.9968C57.0079 34.0409 57.0106 34.0849 57.0038 34.1275C56.5204 37.5752 58.159 41.0199 61.0299 42.5917C61.0719 42.6167 61.1111 42.646 61.1545 42.6695L57.2652 56.2501C57.2232 56.2427 57.1799 56.2442 57.1352 56.2398C53.9433 55.7653 50.7826 57.6001 49.3797 60.7495C49.3607 60.7833 49.3391 60.8156 49.3228 60.8523L43.0014 58.7223L43.0975 58.3815C43.2573 57.8175 42.9662 57.2196 42.4489 57.0448C41.9343 56.87 41.3763 57.1873 41.2165 57.7484L40.8279 59.1087C40.7588 59.3496 40.7873 59.592 40.8658 59.8094C40.8793 59.8461 40.8807 59.8887 40.8969 59.9239C40.9078 59.946 40.9281 59.9607 40.9389 59.9827C41.0594 60.1942 41.2396 60.3676 41.4765 60.4469L49.6167 63.1894L54.6827 64.8978C54.8872 64.9669 55.0944 64.9992 55.2962 64.9992C56.1778 64.9992 56.9998 64.3808 57.2747 63.4186L58.8767 57.8248L63.305 42.3669L64.907 36.7731C65.0695 36.1973 65.018 35.5892 64.7607 35.0574ZM55.3951 62.7811C55.3761 62.8398 55.3206 62.8707 55.2678 62.8545L51.2268 61.4928C52.2668 59.3437 54.4254 58.0731 56.6721 58.3198L55.3951 62.7811ZM61.7557 40.566C61.6488 40.4984 61.5377 40.4353 61.4348 40.3618C61.4348 40.3662 61.4321 40.3706 61.4321 40.3765C59.8152 39.2513 58.851 37.277 58.8957 35.1999C58.8984 35.2028 58.9024 35.2028 58.9051 35.2043C58.9092 35.0192 58.9282 34.8326 58.9431 34.6476L62.9583 35.999C63.0043 36.0137 63.0395 36.0857 63.0246 36.1356L61.7557 40.566Z" fill="black"/>
<path d="M46.735 50.132L48.8408 50.8415C49.1563 50.9473 49.4732 50.9972 49.7847 50.9972C51.1443 50.9972 52.4078 50.0453 52.8316 48.5646L53.4857 46.2804C53.7403 45.399 53.6604 44.4618 53.2636 43.6436C52.8669 42.8269 52.2006 42.2246 51.3867 41.9514L49.2809 41.2419C48.7596 41.0685 48.2084 41.3843 48.0486 41.9455C47.8874 42.5096 48.1772 43.1089 48.6959 43.2837L50.8017 43.9932C51.1132 44.0975 51.3677 44.3281 51.5181 44.6396C51.6697 44.9524 51.7009 45.3109 51.6034 45.6473L50.9507 47.93C50.7502 48.6263 50.065 49.0185 49.4245 48.8011L47.3173 48.0916C46.796 47.9168 46.2475 48.2326 46.0864 48.7953C45.9252 49.3579 46.2164 49.9572 46.735 50.132Z" fill="black"/>
<path d="M48.5822 35.6287C48.0581 35.4554 47.511 35.7697 47.3499 36.3323L46.6687 38.712C46.5075 39.2761 46.7973 39.874 47.316 40.0488C47.4122 40.0811 47.5124 40.0973 47.6085 40.0973C48.0297 40.0973 48.417 39.8035 48.547 39.3452L49.2281 36.9655C49.3906 36.4028 49.1008 35.8035 48.5822 35.6287Z" fill="black"/>
<path d="M44.4938 49.9066C43.9724 49.7318 43.4213 50.0476 43.2615 50.6102L42.579 52.9899C42.4178 53.5525 42.7076 54.1519 43.2276 54.3282C43.3251 54.3605 43.424 54.3766 43.5201 54.3766C43.9413 54.3766 44.3299 54.0828 44.46 53.6245L45.1425 51.2448C45.3023 50.6793 45.0138 50.0814 44.4938 49.9066Z" fill="black"/>
<path d="M45.5637 47.2355C45.9848 47.2355 46.3735 46.9417 46.5035 46.4834L47.186 44.1036C47.3471 43.541 47.0573 42.9417 46.5373 42.7654C46.0146 42.5921 45.4662 42.9064 45.305 43.4691L44.6225 45.8488C44.4613 46.4114 44.7511 47.0107 45.2711 47.187C45.3673 47.2193 45.4675 47.2355 45.5637 47.2355Z" fill="black"/>
<path d="M46.0035 9.94632C46.9759 9.94632 47.8764 9.60993 48.6199 9.04732V14.2665L42.1143 21.4542C41.7337 21.8757 41.7391 22.5515 42.1278 22.9642C42.3215 23.1684 42.5693 23.2698 42.8184 23.2698C43.073 23.2698 43.329 23.1626 43.5199 22.9496L48.6199 17.3146V25.2779C48.6199 25.8684 49.06 26.3473 49.6044 26.3473C50.1488 26.3473 50.5902 25.8684 50.5902 25.2779V15.1376L54.0042 11.3668C54.1748 12.3598 54.6122 13.272 55.2907 13.9948C56.1546 14.9143 57.2935 15.4197 58.5001 15.4197C58.5164 15.4197 58.5299 15.4197 58.5448 15.4197C59.769 15.4079 60.916 14.8791 61.7746 13.9301C62.6332 12.9812 63.099 11.7296 63.0882 10.4002C63.076 9.0723 62.5898 7.82661 61.7136 6.89676C60.8388 5.96544 59.6715 5.41899 58.4595 5.47334C57.2353 5.4851 56.0883 6.01392 55.2297 6.96287L50.5902 12.0895V4.97243C50.5902 2.22988 48.5332 0 46.0049 0C43.4766 0 41.4196 2.23135 41.4196 4.97243C41.4182 7.71645 43.4752 9.94632 46.0035 9.94632ZM56.634 8.45974C57.1243 7.91916 57.7783 7.61802 58.4771 7.61068C58.4852 7.61068 58.4934 7.61068 58.5001 7.61068C59.1908 7.61068 59.8381 7.8986 60.3324 8.42301C60.8307 8.95478 61.1083 9.66428 61.1151 10.4223C61.1219 11.1803 60.8564 11.8942 60.3662 12.4347C59.8773 12.9768 59.2219 13.2765 58.5245 13.2838C57.7959 13.3337 57.1676 13.0032 56.6679 12.4729C56.1695 11.9426 55.8919 11.2331 55.8852 10.4751C55.8784 9.7157 56.1438 9.00032 56.634 8.45974ZM46.0035 2.13734C47.4458 2.13734 48.6199 3.40945 48.6199 4.9739C48.6199 6.53834 47.4458 7.81193 46.0035 7.81193C44.5627 7.81193 43.3872 6.53834 43.3872 4.9739C43.3872 3.40945 44.5627 2.13734 46.0035 2.13734Z" fill="black"/>
</svg>
