<svg width="65" height="65" viewBox="0 0 65 65" fill="none" xmlns="http://www.w3.org/2000/svg">
<path d="M47.0734 55.805C47.6177 55.805 48.0592 55.3649 48.0592 54.8192V37.9135C48.0592 37.3705 47.6177 36.9277 47.0734 36.9277C46.5304 36.9277 46.089 37.3692 46.089 37.9135V54.8192C46.089 55.3636 46.5304 55.805 47.0734 55.805Z" fill="black"/>
<path d="M26.9839 26.0928C26.9839 25.5498 26.5424 25.1084 25.9994 25.1084C25.4551 25.1084 25.0137 25.5485 25.0137 26.0928V27.4063C25.0137 27.9506 25.4551 28.3921 25.9994 28.3921C26.5424 28.3921 26.9839 27.952 26.9839 27.4063V26.0928Z" fill="black"/>
<path d="M26.9839 33.1069C26.9839 32.5639 26.5424 32.1211 25.9994 32.1211C25.4551 32.1211 25.0137 32.5625 25.0137 33.1069V35.9559C25.0137 36.4988 25.4551 36.9403 25.9994 36.9403C26.5424 36.9403 26.9839 36.4988 26.9839 35.9559V33.1069Z" fill="black"/>
<path d="M26.9839 41.6567C26.9839 41.1123 26.5424 40.6709 25.9994 40.6709C25.4551 40.6709 25.0137 41.111 25.0137 41.6567V44.5057C25.0137 45.0486 25.4551 45.4914 25.9994 45.4914C26.5424 45.4914 26.9839 45.05 26.9839 44.5057V41.6567Z" fill="black"/>
<path d="M25.9994 49.2217C25.4551 49.2217 25.0137 49.6618 25.0137 50.2075V53.0564C25.0137 53.5994 25.4551 54.0422 25.9994 54.0422C26.5424 54.0422 26.9839 53.6008 26.9839 53.0564V50.2075C26.9839 49.6618 26.5424 49.2217 25.9994 49.2217Z" fill="black"/>
<path d="M64.0116 59.0873H58.235V45.7916C58.235 45.2486 57.7936 44.8058 57.2506 44.8058C56.7063 44.8058 56.2649 45.2472 56.2649 45.7916V59.0873H37.5216V37.9135C37.5216 37.3705 37.0802 36.9277 36.5372 36.9277C35.9929 36.9277 35.5515 37.3692 35.5515 37.9135V59.0886H26.9828V58.7596C26.9828 58.2166 26.5414 57.7752 25.9984 57.7752C25.4541 57.7752 25.0126 58.2153 25.0126 58.7596V59.0886H20.7134C20.1704 59.0886 19.729 59.5287 19.729 60.0731C19.729 60.6174 20.1704 61.0588 20.7134 61.0588H64.0102C64.5532 61.0588 64.9946 60.6188 64.9946 60.0731C64.996 59.5287 64.5545 59.0873 64.0116 59.0873Z" fill="black"/>
<path d="M15.4623 26.4222C14.9179 26.4222 14.4765 26.8623 14.4765 27.4053V59.0867H5.90921V0.984419C5.90921 0.441432 5.46778 0 4.9248 0C4.38046 0 3.93902 0.441432 3.93902 0.984419V6.76093H0.984418C0.441431 6.76093 0 7.20236 0 7.7467C0 8.29105 0.441431 8.73112 0.984418 8.73112H3.93902V17.297H0.984418C0.441431 17.297 0 17.7385 0 18.2828C0 18.8258 0.441431 19.2672 0.984418 19.2672H3.93902V27.8345H0.984418C0.441431 27.8345 0 28.2759 0 28.8203C0 29.3633 0.441431 29.8047 0.984418 29.8047H3.93902V38.3706H0.984418C0.441431 38.3706 0 38.8121 0 39.3564C0 39.8994 0.441431 40.3422 0.984418 40.3422H3.93902V48.9094H0.984418C0.441431 48.9094 0 49.3509 0 49.8952C0 50.4382 0.441431 50.881 0.984418 50.881H3.93902V59.0894H0.984418C0.441431 59.0894 0 59.5295 0 60.0738C0 60.6182 0.441431 61.0596 0.984418 61.0596H3.93902V64.0142C3.93902 64.5572 4.38046 65 4.9248 65C5.46778 65 5.90921 64.5586 5.90921 64.0142V61.0596H15.4623C16.0052 61.0596 16.4467 60.6195 16.4467 60.0738V27.4066C16.4467 26.8636 16.0052 26.4222 15.4623 26.4222Z" fill="black"/>
<path d="M38.8501 35.4382C39.0329 35.7334 39.3524 35.9067 39.6896 35.9067C39.7614 35.9067 39.8331 35.8986 39.9049 35.881L42.3409 35.334C42.8717 35.2148 43.2048 34.6881 43.0856 34.1586C42.9665 33.6251 42.4452 33.2893 41.9089 33.4125L40.1595 33.8052L31.5732 19.8676C31.3566 19.5142 30.9422 19.3341 30.5374 19.4194L18.9749 21.7796L11.2999 8.06274C11.0359 7.5861 10.4347 7.41549 9.96074 7.6836C9.48545 7.949 9.31619 8.55021 9.58294 9.02414L17.6086 23.3706C17.8171 23.7444 18.2477 23.9407 18.6648 23.8527L30.2584 21.4858L38.8501 35.4382Z" fill="black"/>
<path d="M47.2898 34.2185L51.6283 33.2422L63.2504 47.3896C63.4454 47.6266 63.7271 47.7498 64.0128 47.7498C64.2321 47.7498 64.4542 47.6754 64.637 47.525C65.0581 47.1798 65.1177 46.5596 64.7738 46.1398L52.7658 31.5239C52.5288 31.2382 52.151 31.1068 51.7881 31.1894L46.8579 32.2984C46.3271 32.4176 45.994 32.9443 46.1132 33.4751C46.2323 34.0045 46.7563 34.339 47.2898 34.2185Z" fill="black"/>
</svg>
