<svg width="65" height="65" viewBox="0 0 65 65" fill="none" xmlns="http://www.w3.org/2000/svg">
<path d="M36.4385 62.7051H32.4993H1.97027V58.8808H7.55068H25.9345H32.5007C33.0437 58.8808 33.4851 58.3682 33.4851 57.7327C33.4851 57.1003 33.0437 56.5862 32.5007 56.5862H26.9203V51.6168C26.9203 50.9829 26.4788 50.4688 25.9345 50.4688H21.5037C20.9594 50.4688 20.5179 50.9813 20.5179 51.6168C20.5179 52.2492 20.9594 52.7634 21.5037 52.7634H24.95V56.5877H8.53514V52.7634H16.2483C16.7913 52.7634 17.2328 52.2508 17.2328 51.6168C17.2328 50.9829 16.7913 50.4688 16.2483 50.4688H7.55068C7.00767 50.4688 6.56622 50.9813 6.56622 51.6168V56.5862H0.98446C0.441451 56.5862 0 57.0987 0 57.7327V63.8501C0 64.4825 0.441451 64.9982 0.98446 64.9982H32.4993H36.4385C36.9815 64.9982 37.423 64.4841 37.423 63.8501C37.423 63.2177 36.9829 62.7051 36.4385 62.7051Z" fill="black"/>
<path d="M45.6304 62.7051H41.6912C41.1482 62.7051 40.7068 63.2176 40.7068 63.8516C40.7068 64.484 41.1482 64.9997 41.6912 64.9997H45.6304C46.1748 64.9997 46.6149 64.4856 46.6149 63.8516C46.6163 63.2176 46.1748 62.7051 45.6304 62.7051Z" fill="black"/>
<path d="M64.0142 62.7051H60.075C59.5306 62.7051 59.0892 63.2176 59.0892 63.8516C59.0892 64.484 59.5306 64.9997 60.075 64.9997H64.0142C64.5585 64.9997 65 64.4856 65 63.8516C64.9986 63.2176 64.5585 62.7051 64.0142 62.7051Z" fill="black"/>
<path d="M54.8224 62.7051H50.8833C50.3403 62.7051 49.8988 63.2176 49.8988 63.8516C49.8988 64.484 50.3403 64.9997 50.8833 64.9997H54.8224C55.3655 64.9997 55.8069 64.4856 55.8069 63.8516C55.8069 63.2176 55.3655 62.7051 54.8224 62.7051Z" fill="black"/>
<path d="M64.9985 19.4987C64.9985 16.3367 62.7886 13.7646 60.0749 13.7646H50.8843C50.3413 13.7646 49.8999 14.2771 49.8999 14.9111C49.8999 15.5451 50.3413 16.0592 50.8843 16.0592H60.0749C61.7039 16.0592 63.0296 17.6015 63.0296 19.5003C63.0296 21.3975 61.7039 22.943 60.0749 22.943H41.0343V22.5598V16.4424V16.0608H45.6303C46.1746 16.0608 46.6147 15.5482 46.6147 14.9127C46.6147 14.2803 46.1733 13.7661 45.6303 13.7661H40.0499C39.5069 13.7661 39.0654 14.2787 39.0654 14.9127V15.2959H25.6066V8.41203H27.2478C27.7908 8.41203 28.2337 7.89948 28.2337 7.2655V1.1481C28.2337 0.515699 27.7922 0 27.2478 0H6.23702C5.69401 0 5.25256 0.514122 5.25256 1.1481V7.2655C5.25256 7.8979 5.69401 8.41203 6.23702 8.41203H7.87824V30.5902H6.23702C5.69401 30.5902 5.25256 31.1043 5.25256 31.7383V37.8557C5.25256 38.4881 5.69401 39.0038 6.23702 39.0038H27.2465C27.7895 39.0038 28.2323 38.4897 28.2323 37.8557V31.7383C28.2323 31.1059 27.7908 30.5902 27.2465 30.5902H25.6053V23.7079H39.0641V24.0895C39.0641 24.7219 39.5055 25.2376 40.0485 25.2376H60.0749C62.7886 25.2345 64.9985 22.6623 64.9985 19.4987ZM26.262 32.8832V36.706H7.22284V32.8832H14.1181C14.6611 32.8832 15.1026 32.3691 15.1026 31.7351V14.9111C15.1026 14.2787 14.6611 13.763 14.1181 13.763C13.5737 13.763 13.1323 14.2771 13.1323 14.9111V30.587H9.84851V8.41045H23.6364V16.4408V22.5582V30.5886H19.3695C18.8265 30.5886 18.385 31.1027 18.385 31.7367C18.385 32.3691 18.8265 32.8848 19.3695 32.8848H26.262V32.8832ZM24.6208 6.1174H8.86405H7.22284V2.29304H26.262V6.1174H24.6208ZM39.0654 21.4101H25.6066V17.5873H39.0654V21.4101Z" fill="black"/>
</svg>
