<svg width="65" height="65" viewBox="0 0 65 65" fill="none" xmlns="http://www.w3.org/2000/svg">
<path d="M51.1404 50.3378C53.3246 50.3378 55.1026 48.2824 55.1026 45.7588V43.5327C55.1026 41.0076 53.3246 38.9521 51.1404 38.9521H49.2148C47.0292 38.9521 45.2512 41.0076 45.2512 43.5327V45.7588C45.2512 48.2824 47.0292 50.3378 49.2148 50.3378H51.1404ZM47.2215 45.7588V43.5327C47.2215 42.2631 48.1152 41.2299 49.2148 41.2299H51.1404C52.2386 41.2299 53.1323 42.2631 53.1323 43.5327V45.7588C53.1323 47.0284 52.2386 48.0616 51.1404 48.0616H49.2148C48.1152 48.0616 47.2215 47.0284 47.2215 45.7588Z" fill="black"/>
<path d="M13.8554 50.3378H15.7823C17.9665 50.3378 19.7445 48.2824 19.7445 45.7588V43.5327C19.7445 41.0076 17.9665 38.9521 15.7823 38.9521H13.8554C11.6725 38.9521 9.89453 41.0076 9.89453 43.5327V45.7588C9.89453 48.2839 11.6712 50.3378 13.8554 50.3378ZM11.8648 43.5327C11.8648 42.2631 12.7572 41.2299 13.8554 41.2299H15.7823C16.8819 41.2299 17.7756 42.2631 17.7756 43.5327V45.7588C17.7756 47.0284 16.8819 48.0616 15.7823 48.0616H13.8554C12.7572 48.0616 11.8648 47.0284 11.8648 45.7588V43.5327Z" fill="black"/>
<path d="M62.7196 24.293H59.7459V19.3586C59.7459 18.7309 59.3045 18.219 58.7601 18.219H54.4932V13.2862C54.4932 12.6584 54.0531 12.1465 53.5074 12.1465H49.2405V7.21213C49.2405 6.58438 48.8004 6.07247 48.2561 6.07247H45.3V1.13967C45.3 0.511911 44.8599 0 44.3155 0H35.687C35.6531 0 35.6233 0.0187877 35.5908 0.0234841C35.5597 0.0266151 35.5285 0.0156546 35.4974 0.0219165C35.4622 0.0297439 35.4351 0.0563589 35.4026 0.0673172C35.339 0.0907993 35.2807 0.115844 35.2238 0.153416C35.167 0.187856 35.1169 0.228561 35.0681 0.27396C35.0207 0.320924 34.9787 0.369454 34.9381 0.425811C34.8975 0.482168 34.8623 0.54009 34.8325 0.60584C34.8041 0.668458 34.781 0.731075 34.7621 0.799956C34.7404 0.873533 34.7296 0.947111 34.7228 1.02695C34.7188 1.06452 34.7025 1.10053 34.7025 1.13967C34.7025 1.17724 34.7174 1.21011 34.7215 1.24612C34.7242 1.28369 34.7133 1.31969 34.7201 1.35883L39.3919 28.9315V49.1981C39.3919 49.8259 39.8333 50.3346 40.3777 50.3346C40.9207 50.3346 41.3622 49.8259 41.3622 49.1981V28.8235C41.3622 28.7499 41.3567 28.6763 41.3446 28.6043L40.9993 26.5692H55.4696C55.9219 31.1482 59.0729 34.838 63.0284 35.4235V53.8648C59.0729 54.4503 55.9219 58.1417 55.4696 62.7191H41.3608V56.7891C41.3608 56.1598 40.9207 55.6494 40.3763 55.6494C39.8333 55.6494 39.3905 56.1582 39.3905 56.7891V62.7191H25.6041V28.9331L26.0049 26.5692L34.0959 26.5676C34.6389 26.5676 35.0817 26.0589 35.0817 25.4311C35.0817 24.8018 34.6402 24.2914 34.0959 24.2914H26.3895L30.1187 2.27776H31.7464C32.2894 2.27776 32.7309 1.76742 32.7309 1.13967C32.7309 0.511911 32.2908 0 31.7464 0H29.3076H20.6791C20.136 0 19.6946 0.510345 19.6946 1.13967V6.07247H16.7399C16.1969 6.07247 15.754 6.58281 15.754 7.21213V12.1465H11.4872C10.9441 12.1465 10.5041 12.6568 10.5041 13.2862V18.219H6.23581C5.6928 18.219 5.2527 18.7293 5.2527 19.3586V24.293H2.27901C1.02237 24.293 0 25.4749 0 26.9277V62.3653C0 63.8181 1.02237 65 2.27901 65H24.6209H40.3791H62.721C63.9776 65 65 63.8181 65 62.3653V26.9277C64.9973 25.4749 63.9749 24.293 62.7196 24.293ZM21.6649 2.27933H28.1119L27.4687 6.07403H21.6649V2.27933ZM17.7257 8.3518H27.0828L26.4396 12.1481H17.7257V8.3518ZM1.96756 26.9277C1.96756 26.7304 2.10704 26.5692 2.27766 26.5692H7.63463C7.20131 29.9553 4.89792 32.6182 1.96756 33.1207V26.9277ZM23.6527 28.6043C23.6405 28.6763 23.6338 28.7499 23.6338 28.8235V62.7207H2.27766C2.10704 62.7207 1.96756 62.561 1.96756 62.3637V56.1379C3.88367 56.4603 5.59395 57.719 6.66372 59.6367C6.95621 60.1658 7.56422 60.3177 8.02462 59.9764C8.48232 59.6367 8.61368 58.9322 8.31847 58.4047C6.88444 55.831 4.55803 54.1857 1.96892 53.8491V35.4486C5.99206 34.9241 9.19596 31.2202 9.64959 26.5692H23.9994L23.6527 28.6043ZM24.3826 24.2914L7.22027 24.293V20.4952H25.0245L24.3826 24.2914ZM12.473 18.2205V14.4258H26.0536L25.4104 18.2205H12.473ZM63.027 62.3653C63.027 62.5626 62.8889 62.7222 62.7183 62.7222H57.4805C57.9111 59.4019 60.1617 56.7547 63.027 56.1989V62.3653ZM36.884 2.27933H43.3311V6.07403H37.5272L36.884 2.27933ZM37.9118 8.3518H47.2703V12.1481H38.5564L37.9118 8.3518ZM39.5855 18.2205L38.941 14.4258H52.523V18.2205H39.5855ZM40.6133 24.293L39.9688 20.4952H57.7757V24.293H40.6133ZM63.027 33.0941C60.163 32.5399 57.9124 29.8911 57.4805 26.5708H62.7183C62.8889 26.5708 63.027 26.732 63.027 26.9293V33.0941Z" fill="black"/>
</svg>
